<?xml version="1.0" encoding="utf-8"?>
<!-- Generator: Adobe Illustrator 21.0.0, SVG Export Plug-In . SVG Version: 6.00 Build 0)  -->
<svg version="1.1" id="Layer_1" xmlns="http://www.w3.org/2000/svg" xmlns:xlink="http://www.w3.org/1999/xlink" x="0px" y="0px"
	 viewBox="0 0 168.6 145.8" style="enable-background:new 0 0 168.6 145.8;" xml:space="preserve">
<style type="text/css">
	.st0{fill:#FFFFFF;}
	.st1{fill:#5D2E8F;}
</style>
<title>Global</title>
<path class="st0" d="M0,0v145.8h128.4c11.5,0,21.9-4.3,29.4-12.2c6.9-7.2,10.8-16.8,10.8-26.4V0H0z"/>
<g>
	<path class="st1" d="M1.6,144.2h0.1h125.5h0.1c24.6,0,39.8-19.6,39.8-38.2V73.6H1.6V144.2z"/>
	<g>
		<g>
			<path class="st0" d="M98.3,114.3c0.3,0.3,0.4,0.7,0.4,1.1c0,0.4-0.2,0.8-0.4,1.1c-0.6,0.6-1.6,0.6-2.1,0
				c-0.3-0.3-0.4-0.7-0.4-1.1c0-0.4,0.2-0.8,0.4-1.1c0.3-0.3,0.7-0.4,1.1-0.4C97.6,113.9,98,114.1,98.3,114.3z"/>
			<path class="st0" d="M78.8,133.1h21.1c3,0,5.4-2.4,5.4-5.4v-2.3c0-3-2.4-5.4-5.4-5.4h-8v3h8c1.3,0,2.4,1.1,2.4,2.4v2.3
				c0,1.3-1.1,2.4-2.4,2.4H85.7v-10.1h-3v10.1h-3.8c-1.3,0-2.4-1.1-2.4-2.4v-13.8h-3v13.8C73.4,130.7,75.8,133.1,78.8,133.1z"/>
			<path class="st0" d="M54.4,138.8c0.3-0.3,0.4-0.7,0.4-1.1c0-0.4-0.1-0.8-0.4-1.1c-0.3-0.3-0.7-0.4-1.1-0.4
				c-0.4,0-0.8,0.1-1.1,0.4c-0.3,0.3-0.4,0.7-0.4,1.1c0,0.4,0.2,0.8,0.4,1.1C52.8,139.4,53.8,139.4,54.4,138.8z"/>
			<rect x="125.9" y="113.9" class="st0" width="3" height="19.2"/>
			<path class="st0" d="M112.6,136.3h1.4v-1.2h-1.4c-1.1,0-2,0.9-2,2v0.9h-0.8v1.2h5v-1.2h-3v-0.9
				C111.7,136.7,112.1,136.3,112.6,136.3z"/>
			<path class="st0" d="M108,133.1h9.2c3,0,5.4-2.4,5.4-5.4v-13.7h-3v13.7c0,1.3-1.1,2.4-2.4,2.4h-3.9v-12.4h-3v12.4H108V133.1z"/>
			<path class="st0" d="M51.6,125.4v7.7h6.8c3,0,5.4-2.4,5.4-5.4V120h-3v7.7c0,1.3-1.1,2.4-2.4,2.4h-3.8l0-4.6c0-3-2.4-5.4-5.4-5.4
				h-4.2c-3,0-5.4,2.4-5.4,5.4v2.2c0,3,2.4,5.4,5.4,5.4h3.5v-3h-3.5c-1.3,0-2.4-1.1-2.4-2.4v-2.2c0-1.3,1.1-2.4,2.4-2.4h4.2
				C50.5,123,51.6,124.1,51.6,125.4z"/>
			<path class="st0" d="M65.1,136.2h-2v3h2c2.8,0,5.1-2.4,5.1-5.4V120h-3v13.8C67.2,135.2,66.3,136.2,65.1,136.2z"/>
			<path class="st0" d="M85.4,138.8c0.3-0.3,0.4-0.7,0.4-1.1c0-0.4-0.1-0.8-0.4-1.1c-0.3-0.3-0.7-0.4-1.1-0.4
				c-0.4,0-0.8,0.2-1.1,0.4c-0.3,0.3-0.4,0.7-0.4,1.1c0,0.4,0.2,0.8,0.4,1.1C83.8,139.4,84.8,139.4,85.4,138.8z"/>
			<path class="st0" d="M49.8,113.9c-0.4,0-0.8,0.2-1.1,0.4c-0.3,0.3-0.4,0.7-0.4,1.1c0,0.4,0.2,0.8,0.4,1.1c0.5,0.5,1.6,0.6,2.1,0
				c0.3-0.3,0.4-0.7,0.4-1.1c0-0.4-0.2-0.8-0.4-1.1C50.6,114.1,50.2,113.9,49.8,113.9z"/>
			<path class="st0" d="M44.7,113.9c-0.4,0-0.8,0.2-1.1,0.4c-0.3,0.3-0.4,0.7-0.4,1.1c0,0.4,0.1,0.8,0.4,1.1c0.6,0.6,1.6,0.6,2.2,0
				c0.3-0.3,0.4-0.7,0.4-1.1c0-0.4-0.2-0.8-0.4-1.1C45.5,114.1,45.1,113.9,44.7,113.9z"/>
			<path class="st0" d="M59.8,137.7c0-0.4-0.2-0.8-0.4-1.1c-0.3-0.3-0.7-0.4-1.1-0.4c-0.4,0-0.8,0.1-1.1,0.4
				c-0.3,0.3-0.4,0.7-0.4,1.1c0,0.4,0.1,0.8,0.4,1.1c0.6,0.6,1.6,0.6,2.1,0C59.7,138.5,59.8,138.1,59.8,137.7z"/>
		</g>
	</g>
	<g>
		<g>
			<g>
				<g>
					<path class="st0" d="M25.1,90.2c-2.4,0-4.2-0.5-5.2-1.6C19,87.8,19,86.9,19,86.8c0,0-0.1-2.1,1.3-3.6c1-1.1,2.7-1.7,4.8-1.7
						c2,0,3.6,0.6,4.6,1.7c1.6,1.7,1.4,4.1,1.4,4.2c0,0.9,0.8,1.7,1.7,1.7c0.9,0,1.7-0.8,1.7-1.7c0-9.2-9.1-9.3-9.4-9.3h0
						c-9.2,0-9.5,7.8-9.5,8.7c0,2.6,2,7,9.5,7c2.5,0,4.4,0.6,5.4,1.6c0.9,0.9,1,1.9,0.9,2.4c0,0.5,0,2.1-1.3,3.4
						c-1.1,1.1-2.8,1.7-5,1.7c0,0,0,0,0,0c-2,0-3.6-0.6-4.7-1.7c-1.2-1.3-1.4-3-1.4-3.8c0-0.9-0.8-1.7-1.7-1.7c-1,0-1.8,0.8-1.8,1.7
						c-0.1,2.3,0.8,4.5,2.4,6.2c1.8,1.8,4.3,2.8,7.1,2.8c7.3,0,9.9-4.6,9.9-8.6C35,93.2,31.1,90.2,25.1,90.2z M143.2,90.2
						c-2.4,0-4.2-0.5-5.2-1.5c-0.9-0.9-0.9-1.8-0.9-1.9c0,0-0.1-2.1,1.3-3.6c1-1.1,2.6-1.7,4.8-1.7c2,0,3.6,0.6,4.6,1.7
						c1.6,1.7,1.4,4.1,1.4,4.2c0,0.9,0.8,1.7,1.7,1.7c1,0,1.7-0.8,1.7-1.7c0-9.2-9-9.3-9.4-9.3h0c-9.2,0-9.5,7.8-9.5,8.7
						c0,2.6,2,7,9.5,7c2.5,0,4.4,0.5,5.4,1.6c0.9,0.9,1,1.9,0.9,2.4c0,0.5,0,2.1-1.3,3.4c-1.1,1.1-2.8,1.7-5,1.7c0,0,0,0,0,0
						c-2,0-3.6-0.6-4.7-1.7c-1.2-1.3-1.4-3-1.4-3.8c0-0.9-0.8-1.7-1.8-1.7c-1,0-1.7,0.8-1.7,1.7c-0.1,2.3,0.8,4.5,2.4,6.2
						c1.8,1.8,4.3,2.8,7.1,2.8c7.3,0,9.9-4.6,9.9-8.6C153.1,93.2,149.2,90.2,143.2,90.2z M48.1,78c-5.6,0-9.5,3.9-9.5,9.5l0,16.5
						c0,1,0.8,1.8,1.8,1.8c1,0,1.8-0.8,1.8-1.8v-7h5.9c5.2,0,9.5-4.3,9.5-9.5C57.5,82.3,53.3,78,48.1,78z M48,93.6h-5.9l0-6
						c0-3.6,2.4-6.1,5.9-6.1c3.3,0,6.1,2.7,6.1,6.1C54.1,90.9,51.4,93.6,48,93.6z M74.4,78c-7.8,0-14.1,6.3-14.1,14.1
						c0,7.8,6.3,14.1,14.1,14.1c7.8,0,14.1-6.3,14.1-14.1C88.5,84.4,82.2,78,74.4,78z M74.4,102.9c-5.9,0-10.7-4.8-10.7-10.7
						c0-5.9,4.8-10.7,10.7-10.7c5.9,0,10.7,4.8,10.7,10.7C85.1,98.1,80.3,102.9,74.4,102.9z M104.3,96.5c3.6-1.4,6-4.9,6-8.9
						c0-5.3-4.3-9.6-9.5-9.6c-5.6,0-9.5,3.9-9.5,9.6l0,16.4c0,1,0.8,1.8,1.8,1.8c1,0,1.8-0.8,1.8-1.8v-6.9h5.6l4.7,7.7
						c0.2,0.4,0.6,0.7,1.1,0.8c0.5,0.1,0.9,0.1,1.4-0.2c0.4-0.2,0.7-0.6,0.8-1.1c0.1-0.5,0.1-0.9-0.2-1.4L104.3,96.5z M94.8,93.6
						l0-6.1c0-3.7,2.4-6.1,5.9-6.1c3.4,0,6.1,2.7,6.1,6.1c0,3.3-2.7,6.1-6.1,6.1H94.8z M131.7,80.4c0,1-0.8,1.8-1.8,1.8h-6.1V104
						c0,1-0.8,1.8-1.8,1.8s-1.8-0.8-1.8-1.8l0-21.9h-6.1c-1,0-1.8-0.8-1.8-1.8c0-1,0.8-1.8,1.8-1.8h15.8
						C130.9,78.6,131.7,79.4,131.7,80.4z"/>
				</g>
			</g>
		</g>
	</g>
	<rect x="1.6" y="72.2" class="st1" width="165.5" height="1.5"/>
	<path class="st1" d="M0,0v145.8h128.4c11.5,0,21.9-4.3,29.4-12.2c6.9-7.2,10.8-16.8,10.8-26.4V0H0z M127.1,143.9H1.9V1.9h164.8
		l0,104c0,9.4-3.9,18.8-10.6,25.9C148.7,139.6,138.4,143.9,127.1,143.9z"/>
</g>
<g>
	<g>
		<path class="st1" d="M33.1,24C25,24,20.3,29,18.5,31.4V13.5c0-0.9-0.8-1.7-1.7-1.7c-0.9,0-1.7,0.8-1.7,1.7v29.2
			c0,8.5,6.9,17.6,18.1,17.6c10.8,0,18.1-9.4,18.1-18.3C51.2,30.9,41.8,24,33.1,24z M33.1,56.7c-8,0-14.6-6.6-14.6-14.6
			c0-8.1,6.5-14.6,14.6-14.6c8,0,14.6,6.6,14.6,14.6C47.6,50.1,41.1,56.7,33.1,56.7z M89.7,42.2c0,0.9-0.6,1.7-1.8,1.7H69
			c-1,0-1.8-0.8-1.8-1.8c0-1,0.8-1.8,1.8-1.8l17,0c-0.9-7.3-7-12.8-14.5-12.8c-8,0-14.6,6.5-14.6,14.6c0,8,6.5,14.6,14.6,14.6
			c5.1,0,9.8-2.6,12.5-7c0.3-0.4,0.7-0.7,1.1-0.8c0.5-0.1,0.9,0,1.3,0.3c0.8,0.5,1,1.6,0.5,2.4c-3.3,5.4-9.1,8.6-15.4,8.6
			c-10,0-18.2-8.1-18.2-18.2c0-10,8.1-18.1,18.2-18.1C81.5,24,89.7,32.2,89.7,42.2z M99.8,57.4L99.8,57.4c-0.1,1.4-1.6,2.9-3.5,2.9
			h0c-1.9,0-3.4-1.5-3.5-2.9V27.1c0.1-1.4,1.5-2.9,3.5-3h0c1.9,0,3.4,1.5,3.5,2.9V57.4z M145.9,59.4c-1.7,0.7-3.3,1-4.7,1
			c-4.8,0-8-3.1-9-4.7c-1.3-2-13.5-21.2-14-22.1c0-0.1-1.4-2.8-4-2.7c-4.5,0.4-4.3,4.2-4.3,4.3v21.9c0,1.7-1.6,3.2-3.4,3.2h0
			c-2,0-3.4-1.5-3.5-2.8V34.7c0-0.1,0.2-7.1,6.9-9.8c6.8-2.5,12,1.3,13.9,4.5l14,22c0.1,0.1,2,3.3,5.8,1.5c1.8-0.9,2.2-2.8,2.2-3.4
			V27c0.1-1.4,1.5-2.9,3.4-2.9h0c1.9,0,3.3,1.5,3.4,2.9v22.4C152.6,49.4,152.9,56.5,145.9,59.4z"/>
	</g>
</g>
</svg>
