<svg xmlns="http://www.w3.org/2000/svg" viewBox="0 0 177.55 100"><defs><style>.cls-1{fill:#fff;}.cls-2{fill:#5c2d91;}</style></defs><title>Max1</title><g id="Layer_2" data-name="Layer 2"><g id="Layer_1-2" data-name="Layer 1"><polygon class="cls-1" points="121.25 10.76 121.84 43.6 136.04 46.85 163.26 47.44 170.36 43.89 171.55 9.57 158.53 4.54 121.25 10.76"/><path class="cls-1" d="M0,0V100H88.08a27.51,27.51,0,0,0,20.17-8.39,26.54,26.54,0,0,0,7.4-18.08V0Z"/><path class="cls-2" d="M0,0V100H88.08a27.51,27.51,0,0,0,20.17-8.39,26.54,26.54,0,0,0,7.4-18.08V0ZM114,1.64V49.5H1.64V1.64Z"/><path class="cls-2" d="M22.72,16.49a12.5,12.5,0,0,0-10.06,5V9.29a1.18,1.18,0,0,0-2.36,0v20A12.28,12.28,0,0,0,22.72,41.39c7.43,0,12.42-6.48,12.42-12.54A12.43,12.43,0,0,0,22.72,16.49Zm0,22.42a10,10,0,1,1,10-10A10,10,0,0,1,22.68,38.9Zm38.81-10a1.15,1.15,0,0,1-1.23,1.2h-13a1.23,1.23,0,0,1,0-2.45H59a10,10,0,1,0-1.38,6.46,1.21,1.21,0,0,1,.78-.53,1.19,1.19,0,0,1,.91.18,1.22,1.22,0,0,1,.35,1.68,12.45,12.45,0,1,1,1.86-6.55Zm7,10.44h0a2.4,2.4,0,0,1-2.38,2h0a2.37,2.37,0,0,1-2.38-2V18.56a2.37,2.37,0,0,1,2.38-2h0a2.4,2.4,0,0,1,2.38,2Zm31.63,1.34a8.59,8.59,0,0,1-3.25.67,7.73,7.73,0,0,1-6.19-3.19c-.89-1.35-9.25-14.55-9.61-15.14a3.16,3.16,0,0,0-2.72-1.82c-3.1.28-2.95,2.87-2.94,3v15A2.3,2.3,0,0,1,73,41.39h0a2.31,2.31,0,0,1-2.39-1.91V23.81a7.67,7.67,0,0,1,14.2-3.69L94.4,35.2a3,3,0,0,0,4,1,2.81,2.81,0,0,0,1.53-2.35V18.51a2.39,2.39,0,0,1,2.36-2h0a2.36,2.36,0,0,1,2.36,2V33.85A7.3,7.3,0,0,1,100.07,40.72Z"/><path class="cls-1" d="M16.83,72a4.92,4.92,0,0,1-3.56-1.06,1.91,1.91,0,0,1-.6-1.28,3.64,3.64,0,0,1,.89-2.49A4.29,4.29,0,0,1,16.84,66,4.1,4.1,0,0,1,20,67.14,4.13,4.13,0,0,1,20.93,70a1.18,1.18,0,0,0,2.37,0c0-6.29-6.21-6.37-6.47-6.37h0c-6.31,0-6.49,5.36-6.49,6,0,1.78,1.38,4.8,6.54,4.8a5.07,5.07,0,0,1,3.71,1.12,2.25,2.25,0,0,1,.65,1.64,3.28,3.28,0,0,1-.87,2.32,4.65,4.65,0,0,1-3.46,1.15h0a4.22,4.22,0,0,1-3.2-1.16,3.71,3.71,0,0,1-1-2.59,1.2,1.2,0,0,0-2.4,0,5.82,5.82,0,0,0,1.64,4.24A6.71,6.71,0,0,0,16.82,83c5,0,6.8-3.17,6.8-5.88C23.62,74,21,72,16.83,72Zm81,0a4.92,4.92,0,0,1-3.56-1.06,1.91,1.91,0,0,1-.59-1.28,3.62,3.62,0,0,1,.89-2.49A4.29,4.29,0,0,1,97.89,66,3.64,3.64,0,0,1,102,70a1.18,1.18,0,0,0,2.37,0c0-6.29-6.21-6.37-6.48-6.37h0c-6.31,0-6.5,5.36-6.5,6,0,1.78,1.38,4.8,6.54,4.8a5.06,5.06,0,0,1,3.71,1.12,2.26,2.26,0,0,1,.65,1.64,3.27,3.27,0,0,1-.87,2.32,4.64,4.64,0,0,1-3.46,1.15h0a4.23,4.23,0,0,1-3.2-1.16,3.71,3.71,0,0,1-.95-2.59,1.2,1.2,0,0,0-2.4,0A5.82,5.82,0,0,0,93,81.12,6.72,6.72,0,0,0,97.86,83c5,0,6.8-3.17,6.8-5.88C104.67,74,102,72,97.87,72ZM32.6,63.63a6.23,6.23,0,0,0-6.5,6.52v11.3a1.21,1.21,0,1,0,2.42,0V76.67H32.6a6.52,6.52,0,0,0,0-13Zm0,10.64h-4V70.15A3.89,3.89,0,0,1,32.58,66a4.14,4.14,0,1,1,0,8.29ZM50.69,63.63a9.7,9.7,0,1,0,9.7,9.71A9.72,9.72,0,0,0,50.69,63.63Zm0,17.05A7.35,7.35,0,1,1,58,73.34,7.36,7.36,0,0,1,50.69,80.68ZM71.2,76.28a6.55,6.55,0,0,0-2.4-12.65,6.27,6.27,0,0,0-6.53,6.56V81.46a1.22,1.22,0,0,0,2.44,0V76.74h3.87L71.81,82a1.23,1.23,0,1,0,2.13-1.23Zm-6.49-1.94V70.19A3.91,3.91,0,0,1,68.78,66a4.17,4.17,0,1,1,0,8.34ZM90,65.22a1.22,1.22,0,0,1-1.21,1.22H84.57v15a1.22,1.22,0,0,1-2.44,0v-15H77.91a1.22,1.22,0,0,1,0-2.44H88.78A1.22,1.22,0,0,1,90,65.22Z"/><path class="cls-2" d="M177.52,1.88h-47.1A12.3,12.3,0,0,0,117.83,14V49.5H165a12.3,12.3,0,0,0,12.58-12.07V1.88ZM125.4,28.32h-3.22V11.53h3.22Zm1.26-7.09v-3h4.72V11.53h3.19v16.8h-3.19V21.23ZM141,44.2h-1.9V36.44l-3.41,5.1h-.06l-3.38-5.07V44.2h-1.87V33.39h2l3.29,5.11,3.29-5.11h2Zm.57-15.87v-3H143c3.79,0,4.38-3.41,4.38-5.45,0-2.47-.78-5.4-4.38-5.4h-2.79V28.32h-3.19V11.53h6c4.67,0,7.57,3.22,7.57,8.4s-3,8.4-7.57,8.4ZM152.1,44.2,151,41.59h-5.11l-1.11,2.61h-1.95l4.76-10.89h1.76L154.1,44.2Zm10.71,0L160,40.1l-2.86,4.09h-2.18l3.94-5.5-3.78-5.31h2.24L160,37.26l2.7-3.88h2.18l-3.77,5.28L165,44.2Zm4.72-15.88h-3V14.63h-3.78l1.17-3.07h3.37c1.4,0,2.27,1.06,2.27,2.78Z"/><polygon class="cls-2" points="146.58 39.9 150.31 39.9 148.44 35.58 146.58 39.9"/></g></g></svg>